<?xml version="1.0" encoding="UTF-8" standalone="no"?>
<!-- Created with Inkscape (http://www.inkscape.org/) -->

<svg
   width="71.662331mm"
   height="27.423738mm"
   viewBox="0 0 71.662331 27.423738"
   version="1.1"
   id="svg1"
   inkscape:version="1.3.2 (091e20e, 2023-11-25, custom)"
   sodipodi:docname="cyclone3_black.svg"
   xmlns:inkscape="http://www.inkscape.org/namespaces/inkscape"
   xmlns:sodipodi="http://sodipodi.sourceforge.net/DTD/sodipodi-0.dtd"
   xmlns:xlink="http://www.w3.org/1999/xlink"
   xmlns="http://www.w3.org/2000/svg"
   xmlns:svg="http://www.w3.org/2000/svg">
  <sodipodi:namedview
     id="namedview1"
     pagecolor="#ffffff"
     bordercolor="#000000"
     borderopacity="0.25"
     inkscape:showpageshadow="2"
     inkscape:pageopacity="0.0"
     inkscape:pagecheckerboard="0"
     inkscape:deskcolor="#d1d1d1"
     inkscape:document-units="mm"
     inkscape:zoom="0.7071068"
     inkscape:cx="411.53614"
     inkscape:cy="9.1923879"
     inkscape:window-width="1920"
     inkscape:window-height="1017"
     inkscape:window-x="-8"
     inkscape:window-y="-8"
     inkscape:window-maximized="1"
     inkscape:current-layer="layer1">
    <inkscape:page
       x="2.8013849e-23"
       y="0"
       width="71.662331"
       height="27.423738"
       id="page2"
       margin="0"
       bleed="0" />
  </sodipodi:namedview>
  <defs
     id="defs1">
    <inkscape:path-effect
       effect="mirror_symmetry"
       start_point="83.133419,93.920141"
       end_point="83.144723,101.90666"
       center_point="83.139071,97.9134"
       id="path-effect2"
       is_visible="true"
       lpeversion="1.2"
       lpesatellites=""
       mode="free"
       discard_orig_path="false"
       fuse_paths="false"
       oposite_fuse="false"
       split_items="false"
       split_open="false"
       link_styles="false" />
    <inkscape:path-effect
       effect="mirror_symmetry"
       start_point="83.133419,93.920141"
       end_point="83.144723,101.90666"
       center_point="83.139071,97.9134"
       id="path-effect2-4"
       is_visible="true"
       lpeversion="1.2"
       lpesatellites=""
       mode="free"
       discard_orig_path="false"
       fuse_paths="false"
       oposite_fuse="false"
       split_items="false"
       split_open="false"
       link_styles="false" />
    <inkscape:path-effect
       effect="mirror_symmetry"
       start_point="83.133419,93.920141"
       end_point="83.144723,101.90666"
       center_point="83.139071,97.9134"
       id="path-effect2-43"
       is_visible="true"
       lpeversion="1.2"
       lpesatellites=""
       mode="free"
       discard_orig_path="false"
       fuse_paths="false"
       oposite_fuse="false"
       split_items="false"
       split_open="false"
       link_styles="false" />
    <inkscape:path-effect
       effect="mirror_symmetry"
       start_point="83.133419,93.920141"
       end_point="83.144723,101.90666"
       center_point="83.139071,97.9134"
       id="path-effect2-6"
       is_visible="true"
       lpeversion="1.2"
       lpesatellites=""
       mode="free"
       discard_orig_path="false"
       fuse_paths="false"
       oposite_fuse="false"
       split_items="false"
       split_open="false"
       link_styles="false" />
    <inkscape:path-effect
       effect="mirror_symmetry"
       start_point="83.133419,93.920141"
       end_point="83.144723,101.90666"
       center_point="83.139071,97.9134"
       id="path-effect2-9"
       is_visible="true"
       lpeversion="1.2"
       lpesatellites=""
       mode="free"
       discard_orig_path="false"
       fuse_paths="false"
       oposite_fuse="false"
       split_items="false"
       split_open="false"
       link_styles="false" />
    <inkscape:path-effect
       effect="mirror_symmetry"
       start_point="83.133419,93.920141"
       end_point="83.144723,101.90666"
       center_point="83.139071,97.9134"
       id="path-effect2-9-3"
       is_visible="true"
       lpeversion="1.2"
       lpesatellites=""
       mode="free"
       discard_orig_path="false"
       fuse_paths="false"
       oposite_fuse="false"
       split_items="false"
       split_open="false"
       link_styles="false" />
    <clipPath
       clipPathUnits="userSpaceOnUse"
       id="clipPath2">
      <use
         x="0"
         y="0"
         xlink:href="#g1"
         id="use2" />
    </clipPath>
  </defs>
  <g
     inkscape:label="Calque 1"
     inkscape:groupmode="layer"
     id="layer1"
     transform="translate(-47.124801,-38.618627)"
     style="fill:#000000">
    <path
       style="fill:#000000;stroke-width:0.23704"
       d="m 55.757457,59.004446 c 0.97812,0.568033 0,0 0,0 2.397649,1.024882 5.019538,1.349336 7.586251,0.859237 -1.85436,2.938233 -2.432068,5.001119 -6.459116,6.178677 1.894418,-2.081701 -0.138641,-4.888001 -1.127135,-7.037914 z"
       id="path2"
       sodipodi:nodetypes="ccccc"
       inkscape:export-filename="path2.png"
       inkscape:export-xdpi="96"
       inkscape:export-ydpi="96" />
    <path
       style="fill:#000000;stroke-width:0.264583"
       d="M 83.140974,99.225797 C 55.712971,98.542864 63.800206,94.057094 66.08359,93.91704 c -11.498789,0.645707 -9.926567,7.46447 17.060626,7.93859 z m -9.1e-5,0 c 27.425957,-0.760572 19.326057,-5.223431 17.042287,-5.357021 11.50057,0.613154 9.94766,7.436344 -17.038084,7.986854 z"
       id="path1-6-9"
       sodipodi:nodetypes="cccc"
       inkscape:path-effect="#path-effect2-9-3"
       inkscape:original-d="M 83.140974,99.225797 C 55.712971,98.542864 63.800206,94.057094 66.08359,93.91704 c -11.498789,0.645707 -9.926567,7.46447 17.060626,7.93859 z"
       transform="matrix(0.28231052,0.02083104,-0.02661462,0.44318753,39.074389,12.733165)" />
    <path
       style="fill:#000000;stroke-width:0.264583"
       d="M 83.140974,99.225797 C 55.712971,98.542864 63.800206,94.057094 66.08359,93.91704 c -11.498789,0.645707 -9.926567,7.46447 17.060626,7.93859 z m -9.1e-5,0 c 27.425957,-0.760572 19.326057,-5.223431 17.042287,-5.357021 11.50057,0.613154 9.94766,7.436344 -17.038084,7.986854 z"
       id="path1-6"
       sodipodi:nodetypes="cccc"
       inkscape:path-effect="#path-effect2-9"
       inkscape:original-d="M 83.140974,99.225797 C 55.712971,98.542864 63.800206,94.057094 66.08359,93.91704 c -11.498789,0.645707 -9.926567,7.46447 17.060626,7.93859 z"
       transform="matrix(0.3614456,0.00512617,-0.00654941,0.56741841,30.720649,-1.0654292)" />
    <path
       style="fill:#000000;stroke-width:0.264583"
       d="M 83.140974,99.225797 C 55.712971,98.542864 63.800206,94.057094 66.08359,93.91704 c -11.498789,0.645707 -9.926567,7.46447 17.060626,7.93859 z m -9.1e-5,0 c 27.425957,-0.760572 19.326057,-5.223431 17.042287,-5.357021 11.50057,0.613154 9.94766,7.436344 -17.038084,7.986854 z"
       id="path1-11"
       sodipodi:nodetypes="cccc"
       inkscape:path-effect="#path-effect2-6"
       inkscape:original-d="M 83.140974,99.225797 C 55.712971,98.542864 63.800206,94.057094 66.08359,93.91704 c -11.498789,0.645707 -9.926567,7.46447 17.060626,7.93859 z"
       transform="matrix(0.4124067,-0.03983289,0.05089221,0.64742007,21.234587,-8.7190871)" />
    <path
       style="fill:#000000;stroke-width:0.264583"
       d="M 83.140974,99.225797 C 55.712971,98.542864 63.800206,94.057094 66.08359,93.91704 c -11.498789,0.645707 -9.926567,7.46447 17.060626,7.93859 z m -9.1e-5,0 c 27.425957,-0.760572 19.326057,-5.223431 17.042287,-5.357021 11.50057,0.613154 9.94766,7.436344 -17.038084,7.986854 z"
       id="path1-9"
       sodipodi:nodetypes="cccc"
       inkscape:path-effect="#path-effect2-43"
       inkscape:original-d="M 83.140974,99.225797 C 55.712971,98.542864 63.800206,94.057094 66.08359,93.91704 c -11.498789,0.645707 -9.926567,7.46447 17.060626,7.93859 z"
       transform="matrix(0.45623491,-0.02770593,0.0353983,0.71622415,19.016106,-19.841353)" />
    <path
       style="fill:#000000;stroke-width:0.264583"
       d="M 83.140974,99.225797 C 55.712971,98.542864 63.800206,94.057094 66.08359,93.91704 c -11.498789,0.645707 -9.926567,7.46447 17.060626,7.93859 z m -9.1e-5,0 c 27.425957,-0.760572 19.326057,-5.223431 17.042287,-5.357021 11.50057,0.613154 9.94766,7.436344 -17.038084,7.986854 z"
       id="path1"
       sodipodi:nodetypes="cccc"
       inkscape:path-effect="#path-effect2"
       inkscape:original-d="M 83.140974,99.225797 C 55.712971,98.542864 63.800206,94.057094 66.08359,93.91704 c -11.498789,0.645707 -9.926567,7.46447 17.060626,7.93859 z"
       transform="matrix(0.57622389,0,0,0.90458983,12.947424,-44.802223)" />
    <path
       style="fill:#000000;stroke-width:0.264583"
       d="M 83.140974,99.225797 C 55.712971,98.542864 63.800206,94.057094 66.08359,93.91704 c -11.498789,0.645707 -9.926567,7.46447 17.060626,7.93859 z m -9.1e-5,0 c 27.425957,-0.760572 19.326057,-5.223431 17.042287,-5.357021 11.50057,0.613154 9.94766,7.436344 -17.038084,7.986854 z"
       id="path1-1"
       sodipodi:nodetypes="cccc"
       inkscape:path-effect="#path-effect2-4"
       inkscape:original-d="M 83.140974,99.225797 C 55.712971,98.542864 63.800206,94.057094 66.08359,93.91704 c -11.498789,0.645707 -9.926567,7.46447 17.060626,7.93859 z"
       transform="matrix(0.40969371,0,0,-0.5524815,26.849596,94.891977)" />
    <g
       id="g2"
       clip-path="url(#clipPath2)"
       inkscape:groupmode="layer"
       style="fill:#000000">
      <g
         inkscape:label="Clip"
         id="g1"
         style="fill:#000000">
        <path
           style="font-weight:bold;font-stretch:condensed;font-size:12px;font-family:'Agency FB';-inkscape-font-specification:'Agency FB, Bold Condensed';white-space:pre;fill:#000000"
           d="m 318.31055,156.74365 q 0,0.83789 -0.83789,0.83789 h -2.85938 q -0.81445,0 -0.81445,-0.83789 v -7.48828 q 0,-0.84375 0.81445,-0.84375 h 2.85938 q 0.83789,0 0.83789,0.84375 v 2.14453 h -1.36524 v -1.81055 h -1.77539 v 6.81445 h 1.77539 v -1.92773 h 1.36524 z m 5.01562,-5.08008 -1.48242,5.8418 -0.56836,2.23828 h -1.37109 l 0.61523,-2.20899 -1.5,-5.87109 h 1.37695 l 0.7793,3.89062 0.7793,-3.89062 z m 4.48828,5.18555 q 0,0.73242 -0.74414,0.73242 h -2.32617 q -0.75586,0 -0.75586,-0.73242 v -4.45313 q 0,-0.73242 0.75586,-0.73242 h 2.32617 q 0.74414,0 0.74414,0.73242 v 1.40625 h -1.30664 v -1.01953 h -1.20117 v 3.68555 h 1.20117 v -1.13086 h 1.30664 z m 2.31446,0.73242 h -1.31836 v -9.16992 h 1.31836 z m 4.89843,-0.73242 q 0,0.73242 -0.74414,0.73242 h -2.40234 q -0.75586,0 -0.75586,-0.73242 v -4.45313 q 0,-0.73242 0.75586,-0.73242 h 2.40234 q 0.74414,0 0.74414,0.73242 z m -1.3125,-0.38086 v -3.68555 h -1.27148 v 3.68555 z m 6.22852,1.11328 h -1.34766 v -4.79883 l -1.25976,0.0234 v 4.77539 h -1.3418 v -5.91797 h 1.3418 v 0.2168 q 0.46875,-0.0762 0.93164,-0.14649 0.57422,-0.0937 0.94336,-0.0937 0.73242,0 0.73242,0.72071 z m 4.78711,-0.73242 q 0,0.73242 -0.75586,0.73242 h -2.31445 q -0.75586,0 -0.75586,-0.73242 v -4.45313 q 0,-0.73242 0.75586,-0.73242 h 2.31445 q 0.75586,0 0.75586,0.73242 v 2.17383 l -0.36914,0.36914 h -2.17383 v 1.6582 h 1.25977 v -0.98437 h 1.2832 z m -1.2832,-2.78321 v -1.41797 h -1.25977 v 1.41797 z m 5.12109,-1.6875 q 0,0.28125 -0.17578,0.49219 -0.16992,0.20508 -0.44531,0.20508 h -1.64649 q -0.69726,0 -0.69726,-0.70899 v -0.8789 h 0.93164 v 0.77344 h 1.10156 v -0.70313 l -1.01953,-0.66211 v -0.39258 l 0.93164,-0.60937 v -0.66797 h -0.98438 v 0.71484 h -0.93164 v -0.77343 q 0,-0.75586 0.74414,-0.75586 h 1.44141 q 0.66797,0 0.66797,0.65039 v 0.74414 q 0,0.3164 -0.26953,0.53906 -0.26953,0.18164 -0.53907,0.35742 0.5625,0.35742 0.62696,0.41016 0.26367,0.24609 0.26367,0.65039 z"
           id="text2"
           transform="matrix(1.3246101,0,0,1.3246101,-342.93004,-146.71341)"
           aria-label="Cyclone³" />
      </g>
    </g>
  </g>
</svg>
